<svg id="Layer_1" data-name="Layer 1" xmlns="http://www.w3.org/2000/svg" viewBox="0 0 261.95 470.27"><defs><style>.cls-1{fill:#fff;}</style></defs><title>Body Builder SVG</title>
<defs>
    <mask id="progressBarFill">
<path class="cls-1" d="M422.93,216.85c7.88-4.43,14.56-4.12,21.18-.52,1.4.76,2.91.33,4.4,0,9-1.69,17.57-.89,25.46,4.2a30.43,30.43,0,0,0,4.43,2.29c9.32,4,17.43-1.46,17.42-11.68,0-5.37-.55-10.32-4-15-2.69-3.62-4.4-8.22-1.89-13.15,1-2-.06-4.28-.51-6.37-1.39-6.45,0-11.86,5.33-16.07,3.12-2.49,6.08-5.2,9.31-7.52a19.16,19.16,0,0,1,5.86-2.74c9.82-2.79,28.55,10.43,29.23,20.63.32,4.81.3,9.62.9,14.43a14.13,14.13,0,0,1-4.18,11.83c-5.35,5.62-5.07,19.55.23,24.4,4.42,4,7.43,4.31,13,.62,5.74-3.81,11.65-8.28,18.66-7.44,8.51,1,15.53-.69,22.34-5.75,3.3-2.44,7.87-2.59,12-3,2.8-.26,3.84-1.23,3.06-4.17-1.67-6.3-3.63-12.46-7-18.09-1.52-2.53-3.11-3.77-6.47-2.93-4.61,1.15-9.59.52-14,3.21-1.76,1.07-4.58.11-4.07-1.92,1.41-5.61-2-11,0-16.63,1-2.9,2.37-4.74,5.48-4.78,5.83-.06,11.67-.34,17.45.69,6,1.06,10.34,3.92,14.19,9.06,7.46,10,16.24,18.93,23.29,29.3,4.38,6.46,6.44,13.85,9.57,20.8,1.21,2.7-.09,5.14-1.32,7.59-9.28,18.46-24.77,26.56-44.89,27.06-4.49.11-9,.5-13.46.59-1.82,0-2.83.71-3.17,2.44C577.39,275.16,568.68,290,562,305.55a149.79,149.79,0,0,0-11.12,42.25c-.79,7.08.08,14.88,4.85,21.84A91.66,91.66,0,0,1,570.2,404c2.18,11.11,4.19,22.24,5.44,33.51a55.59,55.59,0,0,1-2.76,25.1,30.23,30.23,0,0,0-1.89,11.2c.34,12.77,0,25.46,2.65,38.22,2.71,13-.67,26.16-2.87,39.15-1.58,9.35-3.65,18.71-4.1,28.14-.64,13.37,3.73,24.55,16.82,29.29,2.09.76,5,1.17,4.71,4.29s-3.07,3.62-5.48,4.27c-8,2.15-15.53,1.16-22.4-3.58a11.08,11.08,0,0,0-7.56-1.74c-7.08.48-9.6-2.63-6.82-9,3-7,2-14.13,1.63-21.19-.74-12.67-2.68-25.08-9-36.5-5.1-9.2-3.35-19.54-.11-28.27,7-19-.29-35.06-7.48-51.45-4.46-10.17-10.15-19.8-13.44-31.67-3.22,10.65-9,18.54-14.79,26.51-4.8,6.61-7.36,14.25-9.91,22.11-3.65,11.2-2.16,21.4,1,32a63.61,63.61,0,0,1,2.42,15.26c.35,7.3-.67,14-4.69,20.51-5.44,8.78-5.48,19.13-6.2,29-.64,8.75-1.27,17.61,1.72,26.25,1.5,4.34-.83,7.77-5.09,7.94-12.77.5-24.73,5.06-37.23,6.71a12.38,12.38,0,0,1-4.46-.21c-2.57-.64-3.78-2.7-4.08-5.15s1.64-3.33,3.64-4a34.59,34.59,0,0,0,24.07-32.43c.39-15.39-1.73-30.56-3.44-45.79-1.16-10.42-.31-20.82.51-31.33.86-11.08.93-23.21-2.7-33.45-7.67-21.64-5.45-41.66,3.23-62.07,5.79-13.62,11-27.53,15.7-41.56,2.53-7.5,3.63-15.42-.15-23.24a30.76,30.76,0,0,1-2.5-9.63c-2.08-17.43-10.74-32.08-19.47-46.69a68.91,68.91,0,0,1-8.18-19.77c-.78-3.37-1.89-4.51-5.76-3.89-19.87,3.15-36.45-2.77-49.06-18.83-2.47-3.15-5-6.23-7.69-9.2-2.54-2.82-2.92-5.7-1.4-9.18,6.12-13.94,14.89-25.58,28.44-33.13a30,30,0,0,0,10.12-9.49c3.87-5.68,9.23-7.83,15.94-7.2a65.76,65.76,0,0,1,15.6,3.34c6.62,2.33,10,10.85,6,16.69-1.91,2.79-1.15,7.52-5.39,8.44-3.91.85-5.51-3.2-8.32-4.77-8.51-4.77-16.65-1.29-19.28,8.26C425.23,209,424.28,212.17,422.93,216.85Z" transform="translate(-382.13 -149.93)"/>
	</mask>
</defs>
<g x="0" y="0" width="79.36px" height="93.844px" mask="url(#progressBarFill)" height="100">
  <rect id="progressMove" x="0" y="0%" width="100%" height="100%" fill="blue" stroke="black" />
</g>
</svg>