<svg id="Layer_2" data-name="Layer 2" xmlns="http://www.w3.org/2000/svg" viewBox="0 0 166.46 303.33">
<title>Female Zumba</title>
	<defs>
		<style>.cls-1{fill:#fff;}</style>
	</defs>
	<defs>
		<mask id="progressBarFill">
			<path class="cls-1" d="M75.45,285.48a2.93,2.93,0,0,0-.69-.18A2.59,2.59,0,0,1,72,283.56c-.57-1.39.54-2,1.16-2.8A3.61,3.61,0,0,1,75,279.5c1.3-.37,2-1.47,3-2.24a1,1,0,0,0,.17-1.31c-2.61-6.2-2.24-12.58-1-18.95a90,90,0,0,0,1-24c-.37-5.08-.5-10.17-.46-15.27a31.55,31.55,0,0,0-2.51-12.89,30.59,30.59,0,0,1-2.75-9.07c-.16-1.77-1.41-3.3-1.73-5.11-.08-.46-.63-.54-1-.65-1.19-.32-2.38-.66-3.58-.93a18.28,18.28,0,0,1-8.83-4.94,97.47,97.47,0,0,0-19.46-14.38,184.51,184.51,0,0,1-19.95-13.25c-1.09-.84-2.34-1.46-3.49-2.21a19.11,19.11,0,0,1-8.51-11.17,5.55,5.55,0,0,1,0-3c.37-1.37.69-2.76,1.1-4.13a7,7,0,0,1,4.11-4.68c6.66-2.66,13.31-5.33,20.44-6.6a173,173,0,0,1,27-2.36c2.77-.06,2.79-.08,2-2.67a49,49,0,0,0-7.63-15.53c-1.15-1.5-2.08-3.18-3.09-4.79a18.43,18.43,0,0,1-2.12-6.75,25,25,0,0,0-4.33-10.45c-2.92-4-2.91-8.09-.58-12.31.59-1.08,1.29-2.1,1.92-3.17.9-1.55.64-2.12-1.13-2.3a42.8,42.8,0,0,0-6-.42c-10.88.4-21.22-2.31-31.51-5.28-3.08-.89-4.77-3.34-6-6.11-.4-.89.19-1.69.83-2.28,6.38-6,12.78-12,20.59-16.17A45.68,45.68,0,0,0,30,28.36a9.32,9.32,0,0,1,5.88-2.24c2.91-.13,5.8.56,8.69.35,3.15-.22,5.22,1,7.42,3.24,2.4,2.43,4.5,4.85,5.46,8.14.21.72.78,1.78-.07,2.13s-1.51-.56-2-1.34a18.26,18.26,0,0,0-1.77-3.25,1.06,1.06,0,0,0-1-.53,36.71,36.71,0,0,0,2.23,6.89c.18.45.65,1,0,1.4a1.12,1.12,0,0,1-1.64-.36c-.63-1.3-1.93-.78-2.86-1.19-.54-.24-.49.52-.6.9s0,1-.62,1a1.08,1.08,0,0,1-1-.86,6.68,6.68,0,0,1-.16-1.26c0-.38,0-.77,0-1.14a1.6,1.6,0,0,0-1.1-1.38c-.72-.27-.82.45-1.11.84s-.41,1-1,.68a.94.94,0,0,1-.39-1.26c.73-1.55-.21-2.09-1.4-2.6a26,26,0,0,1-5-2.7,3.62,3.62,0,0,0-3.68-.2,9,9,0,0,0-2.59,1.75A102.45,102.45,0,0,0,19.59,48.8c-.72,1-.7,1.26.64,1.45a47,47,0,0,0,19.62-1.31,16.1,16.1,0,0,1,10.64.54c1.94.8,4,.51,6,.12.61-.11.87-.57,1.16-1a10.77,10.77,0,0,0,1.71-8.3,64.59,64.59,0,0,0-1.72-7.5,11.44,11.44,0,0,0-3.3-5.4A48.88,48.88,0,0,0,50,23.57a2.78,2.78,0,0,1,.1-4.76c.54-.38,1.14-.84,1-1.45-.4-1.61.56-1.62,1.64-1.56.11-.4-.15-.65-.32-.92-.56-.86-.28-1.44.6-1.79,1.29-.5,1.29-1.31.7-2.38-1-1.77-.55-2.59,1.39-2.8,1.66-.19,3.23-.8,4.9-.93a2.22,2.22,0,0,0,1.86-1.79c.44-1.59,1.67-2,3-2.73C68,.77,71.52.32,74.87,0a12.29,12.29,0,0,1,11.3,5.5c1.18,1.67,2.21,3.45,3.27,5.19a12.8,12.8,0,0,1,2,7.33,30.64,30.64,0,0,1-.06,3.84c-.5,2.84,1.14,4.54,3.09,6A13.73,13.73,0,0,1,100.33,38a117.77,117.77,0,0,0,2.38,11.88,2.94,2.94,0,0,0,.48,1,13,13,0,0,1,2.27,8.79,19.58,19.58,0,0,0,1,7.29c.46,1.6.95,3.19,1.25,4.83a7.34,7.34,0,0,0,2.4,4.09c1,1,2.28,1.74,2.26,3.43,0,.32.5.67.82.94.71.59,1.46,1.13,2.52,1.94-1.2-.26-1.86-1-3-.86.47.79.86,1.51,1.31,2.19a13.77,13.77,0,0,1,2.59,5.81,11.1,11.1,0,0,0,.73,1.68c.15.46,1.22.7.45,1.35-.58.48-1.14,1.11-2.12.33s-2.44-1-3.65-1.89a2.52,2.52,0,0,0,.91,1.86c2.95,3.7,6.63,6.68,9.95,10,3.68,3.69,6.63,8,10.1,11.83a30.21,30.21,0,0,0,4.36,4.1,6.81,6.81,0,0,1,2.26,2.71c1.66,3.76,4.18,7,6.2,10.56,1.59,2.79,2.52,5.84,1.34,9.11a4.25,4.25,0,0,0,.06,3c.81,2.28,1.48,4.59,2.21,6.89v1.15c-1.1.68-1.6-.21-2-.9-.85-1.46-1.58-3-2.42-4.62a11.13,11.13,0,0,0-1,2.5c-.14.34-.27.76-.77.69a.92.92,0,0,1-.86-.82,21.12,21.12,0,0,1,0-2.14,16,16,0,0,0-3.12,2.53c-.36.32-.67.94-1.3.51a1.12,1.12,0,0,1-.3-1.53,3.67,3.67,0,0,0,.12-2.92c-1.06-3-1.61-6.24-3-9.2a10.55,10.55,0,0,1-1.22-5.66,8,8,0,0,0-2.34-6.76c-1-1.1-2.15-2.15-3.29-3.15-5.67-5-11.88-9.21-17.81-13.82-4.34-3.38-8.34-7-11-12-2.24-4.19-4.95-8.12-7.25-12.27C90.36,80,88,78.24,86,76.13c-.44-.47-.78-.42-1.06.19-.81,1.77-1.65,3.53-2.47,5.29a1.25,1.25,0,0,0,0,1.34,4.2,4.2,0,0,1,.21,3.58,6.73,6.73,0,0,0-.58,2.19c.3,3.4.47,6.86,2.29,9.9,2.8,4.69,5.65,9.36,8.47,14a73.83,73.83,0,0,1,6.66,13.85,21,21,0,0,1-.64,15.58,11.49,11.49,0,0,0-.83,2.85,15.07,15.07,0,0,1-2.9,6.89,10.73,10.73,0,0,0-1.76,3.55c-1.06,3.68-.94,7.43-.67,11.19a88.82,88.82,0,0,1-.07,15.81c-.61,5.57-1.28,11.11.17,16.72.94,3.61,1,7.4,2,11a32.11,32.11,0,0,1,1.14,14c-.84,4.95-1.91,9.88-3,14.79s-2.67,9.62-3.14,14.61c-.25,2.64-.12,5.07,2.4,6.84a3.47,3.47,0,0,1,1.62,4,9.45,9.45,0,0,1-4.47,5.86,5.16,5.16,0,0,0-2.74,4.2,20.65,20.65,0,0,0-.17,5.55c.29,2.46-.41,4.4-2.75,5.55ZM43.71,150.68c.72.95,1.38,1.75,2,2.6,4.5,6.66,10.28,12.21,15.72,18.05.92,1,1.91.7,2.83.12s2-.81,1.72-2.48a57.88,57.88,0,0,1-1.18-13.33c0-1.08-.29-1.34-1.32-1.37a53.66,53.66,0,0,1-15.84-2.64A11.58,11.58,0,0,0,43.71,150.68ZM92.64,47c-.16-2.88-.28-5.4-.45-7.91s-.42-5-.79-7.51c-.2-1.4-1.36-1.65-2.29-2s-1.23.75-1.53,1.39a21.37,21.37,0,0,0-1,3c-1.29,4.48-4,6-8.54,4.89-.64-.16-1.5-.63-2,.09a2.46,2.46,0,0,0,.09,2.32,3.16,3.16,0,0,0,.66.93,65.17,65.17,0,0,0,7.43,6.61A25.79,25.79,0,0,1,91,55.09c.16.23.31.56.64.46s.33-.43.35-.72C92.23,52.08,92.45,49.34,92.64,47Zm47.65,97.78c2.62-1.56,2.53-3.95,0-5.77-.26-.18-.54-.51-.87-.35s-.21.67-.15,1C139.57,141.29,140.4,142.83,140.29,144.73Z"/>
		</mask>
	</defs>
              
	<g x="0" y="0" width="79.36px" height="100%" mask="url(#progressBarFill)">
		<rect id="progressMove" x="0" y="0%" width="100%" height="100%" fill="#fff" stroke="#fc5336" />
	</g>
	
	<g x="0" y="0" width="79.36px" height="100%" mask="url(#progressBarFill)">
		<rect id="progressStatusFill" x="0" y="100%" width="110%" height="100%" fill="#fc5336" stroke="#fc5336" style="transition: 0.8s;" />
	</g>
</svg>