<svg id="Layer_2" data-name="Layer 2" xmlns="http://www.w3.org/2000/svg" viewBox="0 0 166.46 303.33">
<title>Female Yoga</title>
	<defs>
		<style>.cls-1{fill:#fff;}</style>
	</defs>
	<defs>
		<mask id="progressBarFill">
			<path class="cls-1" d="M32.39,35.4c-1.93-4.16-5-7.41-8.27-10.51a6.18,6.18,0,0,0-5-1.88c-5,.59-8.85-1.43-11.71-5.2-1.17-1.55-5.5-2.21-2.37-5.75A17.07,17.07,0,0,0,2.89,9.54C-.11,6.4-.73,3.58.83,0H6.62A5,5,0,0,0,9.56,1.82a23.51,23.51,0,0,1,12.28,8.42A68.75,68.75,0,0,0,38.43,25.75c15.6,10.25,26,24.56,34.09,41a83.59,83.59,0,0,0,10.8,17.08,20.08,20.08,0,0,0,4,3.92c.28-1.4-1.54-1.67-1.35-3.14,6.87,2.49,14.07,3,21,5s9.32,5,9.79,12a9.73,9.73,0,0,0,1.55,4.15C124,116,130.43,125.93,134.81,137c5.86,14.81,5.35,29.5-.06,44.24a141.86,141.86,0,0,1-7.68,16.26c-4.19,8.09-9,16-11.83,24.6-5.54,16.65-15.89,31.12-20.77,48-1.26,4.34-2.41,8.63-2.36,13.23A9.89,9.89,0,0,0,97,292.1c4.33,2.78,9.17,4.07,14.11,5.15,1.89.42,4.79.4,4.47,3.05-.26,2.18-3.06,1.9-4.88,2-4.27.25-8.63.56-12.79-.62-6.61-1.88-13.48-.47-20.1-1.84-5.64-1.17-6.78-2.86-4.33-8,8.21-17.08,11.32-35.4,13.74-53.94a37.84,37.84,0,0,1,2.34-10c.93-2.22.95-2.2,4.19-4.06.3-.17.32-.92.39-1.41,1.84-12.31,4.34-24.48,7.37-36.54a22.6,22.6,0,0,0-.73-14.41c-2.9-7.36-1.83-14.81,2.35-21.58,4.81-7.77,4.22-14.11-2.21-20.56a52.8,52.8,0,0,0-11.71-8.43,50.63,50.63,0,0,1-16.51-15c-.35-.49-.54-1.21-1.57-1.22A29.84,29.84,0,0,1,70,110.89,4.14,4.14,0,0,0,71.35,115c1.79,2,2.87,4.22,1.38,6.69s-3.82,3.26-6.67,2.67c-1.25-.25-2.56-.17-3.84-.33-1-.13-2.16-.51-2.34-1.46-.6-3.2-2.94-2.78-5.19-2.82a17.68,17.68,0,0,1-17.56-16c-.28-3.27,2.16-5.74,3.07-8.67.19-.6,1-1.22.85-1.68C39.3,86.24,46.71,84.31,49,79.45c.75-1.59,2.46-.85,3.68-.07,2,1.3,4.06,2.33,6.62,1.81,1.62-.34,2.19.93,2.69,2.18A21.19,21.19,0,0,0,65.67,90c-4.25-10.23-7.2-21-12.2-30.89a6.46,6.46,0,0,0-1.86-2.58c-.31-1.46-1.46-2.3-2.4-3.3-2.11-2.24-4.56-4.09-6.67-6.37C39.08,43.08,36.35,38.69,32.39,35.4Z"/>
			<path class="cls-1" d="M32.39,35.4c4,3.29,6.69,7.68,10.15,11.43,2.11,2.28,4.56,4.13,6.67,6.37.94,1,2.09,1.84,2.4,3.3,2,6.34,5.33,12.11,7.61,18.33.29.8.65,1.58.9,2.4.3,1,.86,2.2-.53,2.77-1.57.64-2.05-.71-2.48-1.78-1.9-4.64-3.8-9.29-5.59-14A30.11,30.11,0,0,0,45,54.13c-4.8-5.05-8.3-11.1-12.1-16.9A5.53,5.53,0,0,1,32.39,35.4Z"/>
		</mask>
	</defs>
              
	<g x="0" y="0" width="79.36px" height="100%" mask="url(#progressBarFill)">
		<rect id="progressMove" x="0" y="0%" width="100%" height="100%" fill="#fff" stroke="#fc5336" />
	</g>
	
	<g x="0" y="0" width="79.36px" height="100%" mask="url(#progressBarFill)">
		<rect id="progressStatusFill" x="0" y="100%" width="110%" height="100%" fill="#fc5336" stroke="#fc5336" style="transition: 0.8s;" />
	</g>
</svg>