<svg id="Layer_2" data-name="Layer 2" xmlns="http://www.w3.org/2000/svg" viewBox="0 0 166.46 303.33">
<title>Female Body</title>
	<defs>
		<style>.cls-1{fill:#fff;}</style>
	</defs>
	<defs>
		<mask id="progressBarFill">
			<path class="cls-1" d="M115.29,303.33c-5.19-1.88-6.41-4.55-3.89-9.43,2-3.87,2.51-8,2.9-12.19a71.84,71.84,0,0,1,2.51-13c2.08-7.33.52-14.45-1.19-21.58A137.05,137.05,0,0,1,112,219.71a8.1,8.1,0,0,0-.88-3.86,80.89,80.89,0,0,1-9.55-28.12c-1.17-7.64-4.17-14.81-6.31-22.21-.43-1.5-1-1.89-2.64-1.07-2.81,1.44-4.48,3.8-6.13,6.31q-6.36,9.65-12.89,19.18C71,193.7,67.5,196.59,64,199.48a60.61,60.61,0,0,0-5.61,5.26c-3.85,4.15-6.17,8.47-4.3,14.7A36.21,36.21,0,0,1,55,237.13a16.36,16.36,0,0,1-1.41,4.69c-3.36,6-4.65,12.71-6.29,19.27-1.17,4.71.51,8.59,4.68,11a2.91,2.91,0,0,1,1.6,3.54,59.87,59.87,0,0,0-.8,17.47c.08,1,.16,2-1.12,2.14-1.44.18-1.63-.94-1.8-2-.37-2.33-.66-4.68-1.12-7-.13-.71.06-1.86-1.08-1.93-.8-.05-1.11.82-1.49,1.41a18.55,18.55,0,0,0-2.74,10.59c0,3.21-1.44,4.69-4.37,5.27a40.06,40.06,0,0,1-9.21.59c-2.42-.08-3.68-1.44-4.26-3.7s1-3.16,2.46-4.08c.87-.54,1.83-.92,2.75-1.38a4.55,4.55,0,0,0,2.78-5.29c-1.84-9.36-.86-18.58,1-27.81.91-4.46.52-9,.37-13.53-.19-5.74-.74-11.45-.14-17.22a52.13,52.13,0,0,0-1.2-16.83c-1-4.49.08-8.56,2.31-12.41a14.7,14.7,0,0,0,2-4.79c2.44-13.93,9.28-25.53,19-35.61a4.57,4.57,0,0,1,.44-.44c8.33-6.66,9.16-15.49,7.14-25.08a84.38,84.38,0,0,1-2-13c-.33-6.56-2.46-12.65-5.25-18.56A43.93,43.93,0,0,1,53,87.11a6.54,6.54,0,0,0-1.67-3.87,13.71,13.71,0,0,1-3.45-9c-.06-3.78-2.34-5.54-6.09-5.1a25,25,0,0,0-3.61.77,33.28,33.28,0,0,1-18.84-.46c-4.31-1.34-8.53-3-13-3.91-2.92-.63-4.53-3-6.33-5.14V58c.47-1.14,1-2.26,1.39-3.42,2.41-6.76,4.44-13.67,9-19.49A26.82,26.82,0,0,0,15.73,24.4a6.53,6.53,0,0,1,3.44-4.14c3.88-2.33,7.8-4.57,11.62-7,2.28-1.45,4.28-1.36,6,.67,2.23,2.6,5,4.51,4.47,9.07-.38,3-.81,3.41-3.39,3.16a46.68,46.68,0,0,0-9.52.27c-3.06.33-4.8,1.95-6,4.56a36.37,36.37,0,0,0-3.21,17.08c.16,4.42,1,5.14,5.19,3.6A19.27,19.27,0,0,1,36.12,51a4,4,0,0,0,3,0c6.3-3.35,12.7-3.69,19.22-.62.77.35,1.74.67,1.82-.66.19-3.23,1.64-6.42.21-9.71A6.18,6.18,0,0,1,60.12,36c2.16-8.88,4.05-17.83,8.12-26.11C70.44,5.4,73.48,1.8,78.3,0H89.4c5.13,2,8.28,5.82,10.45,10.7a49.15,49.15,0,0,1,3.32,11.5c1.48,8.36,2.21,16.9,6.25,24.64,1,1.84,2.12,3.07,4,3.45a39.26,39.26,0,0,1,13.43,5.13,2.71,2.71,0,0,0,1.76.41,27.2,27.2,0,0,1,16,1.73c1.65.7,2.7-.16,2.63-2.16a76.68,76.68,0,0,1,.47-9.21,24.1,24.1,0,0,0-2.53-13.13c-.81-1.61-1.83-3.27-3.72-3.39-4-.25-7.56-2.37-11.67-2.3-4.45.09-.86-4.84-3.5-6.27-.83-.45-.47-1.83.41-2.69,4.78-4.69,8.58-4.86,13.65-.57a8.56,8.56,0,0,0,1.18,1c5.78,3.47,9.42,8.46,12.53,14.54C158.43,42,162.66,50.6,165,60c.4,1.59,1,3.15,1.42,4.72v3.08a8.17,8.17,0,0,1-4.06,2.64c-3.22,1-6.43,2.11-9.65,3.18-9.69,3.22-19.35,4.38-29.17.3-3.48-1.45-5.72-.46-8.15,2.44a58,58,0,0,0-11.9,23.74c-.57,2.32-1.24,4.93,0,6.92,3.65,5.72,5.7,12.25,9.77,17.78,8,10.87,12.63,22.89,11.79,36.73-.74,12.18-1.14,24.39-1,36.61a22.63,22.63,0,0,0,2.25,10.45c6.14,11.7,6.65,23.85,3.57,36.49-1.7,7-3.35,14.07-2.66,21.3.91,9.56-.27,19.08-.16,28.61.06,4.79-2.24,7.07-7,7.85-.81.13-1.6.31-2.4.47Z"/>
		</mask>
	</defs>
              
	<g x="0" y="0" width="79.36px" height="100%" mask="url(#progressBarFill)">
		<rect id="progressMove" x="0" y="0%" width="100%" height="100%" fill="#fff" stroke="#fc5336" />
	</g>
	
	<g x="0" y="0" width="79.36px" height="100%" mask="url(#progressBarFill)">
		<rect id="progressStatusFill" x="0" y="100%" width="110%" height="100%" fill="#fc5336" stroke="#fc5336" style="transition: 0.8s;" />
	</g>
</svg>