<svg xmlns="http://www.w3.org/2000/svg" viewBox="0 0 239.2 214.04"><defs><style>.cls-1{fill:#231f20;}.cls-2{fill:#8dc63f;}</style></defs><title>1o1 Fitness</title><g id="Layer_2" data-name="Layer 2"><g id="Layer_1-2" data-name="Layer 1"><path class="cls-1" d="M0,191.67H13.48v4.08H5v5h7.92v4.06H5v8.86H0Z"/><path class="cls-1" d="M42.52,191.67v22h-5v-22Z"/><path class="cls-1" d="M71.37,195.85H65.45v-4.18H82.39v4.18h-6v17.86h-5Z"/><path class="cls-1" d="M105.31,213.71v-22h5.83l4.58,8.08a64.42,64.42,0,0,1,3.59,7.55h.1a81.18,81.18,0,0,1-.42-9.19v-6.44h4.57v22h-5.23l-4.71-8.5a79.27,79.27,0,0,1-3.82-7.79l-.1,0c.13,2.92.19,6,.19,9.62v6.64Z"/><path class="cls-1" d="M161.27,204.39h-8.11v5.23h9.06v4.09H148.16v-22h13.61v4.08h-8.61v4.58h8.11Z"/><path class="cls-1" d="M186.07,208.57a12.66,12.66,0,0,0,5.52,1.38c2.29,0,3.5-.95,3.5-2.39s-1-2.16-3.69-3.11c-3.67-1.27-6.05-3.3-6.05-6.5,0-3.77,3.14-6.64,8.34-6.64a13.49,13.49,0,0,1,5.62,1.11l-1.11,4a10.52,10.52,0,0,0-4.61-1.05c-2.16,0-3.21,1-3.21,2.13,0,1.41,1.25,2,4.09,3.11,3.89,1.44,5.73,3.46,5.73,6.57,0,3.7-2.85,6.84-8.9,6.84a14.4,14.4,0,0,1-6.25-1.35Z"/><path class="cls-1" d="M224,208.57a12.66,12.66,0,0,0,5.52,1.38c2.29,0,3.5-.95,3.5-2.39s-1-2.16-3.69-3.11c-3.67-1.27-6.05-3.3-6.05-6.5,0-3.77,3.14-6.64,8.34-6.64a13.49,13.49,0,0,1,5.62,1.11l-1.11,4a10.52,10.52,0,0,0-4.61-1.05c-2.16,0-3.21,1-3.21,2.13,0,1.41,1.25,2,4.09,3.11,3.89,1.44,5.72,3.46,5.72,6.57,0,3.7-2.84,6.84-8.89,6.84a14.4,14.4,0,0,1-6.25-1.35Z"/><path class="cls-1" d="M82.72,107.61H81.07v-3.53a2.92,2.92,0,0,1-2.9-2.91V98.7a2.92,2.92,0,0,1,2.9-2.91V92.26h1.65ZM92,116a1.86,1.86,0,0,1-1.86,1.86H86.76A1.86,1.86,0,0,1,84.9,116V83.83A1.86,1.86,0,0,1,86.76,82h3.33A1.86,1.86,0,0,1,92,83.83Zm9.23,3.94a1.85,1.85,0,0,1-1.86,1.85H96A1.86,1.86,0,0,1,94.13,120V79.9A1.86,1.86,0,0,1,96,78h3.33a1.86,1.86,0,0,1,1.86,1.86Zm29.25-15.15H103.37V95h27.06ZM139.66,120a1.85,1.85,0,0,1-1.86,1.85h-3.33a1.86,1.86,0,0,1-1.86-1.85V79.9A1.86,1.86,0,0,1,134.47,78h3.33a1.86,1.86,0,0,1,1.86,1.86Zm9.23-3.94A1.86,1.86,0,0,1,147,117.9H143.7a1.85,1.85,0,0,1-1.85-1.86V83.83A1.85,1.85,0,0,1,143.7,82H147a1.86,1.86,0,0,1,1.86,1.86Zm6.73-14.87a2.91,2.91,0,0,1-2.9,2.91v3.53h-1.64V92.26h1.64v3.53a2.91,2.91,0,0,1,2.9,2.91Z"/><path class="cls-2" d="M120.19,165.47A66.52,66.52,0,1,1,186.71,99,66.59,66.59,0,0,1,120.19,165.47Zm0-123.86A57.34,57.34,0,1,0,177.53,99,57.41,57.41,0,0,0,120.19,41.61Z"/><path class="cls-2" d="M31.14,169.87l-6.5-6.5A92.82,92.82,0,0,0,52,97.29,92.78,92.78,0,0,0,28,34.71L8.28,56.59,1.46,50.45,27.72,21.29l3.42,3.42A102.76,102.76,0,0,1,31.14,169.87Z"/><circle class="cls-2" cx="14" cy="8.52" r="8.52"/><path class="cls-2" d="M209.52,169.87a102.76,102.76,0,0,1,0-145.16l3.42-3.42L239.2,50.45l-6.82,6.14-19.7-21.88A93.58,93.58,0,0,0,216,163.37Z"/><circle class="cls-2" cx="226.05" cy="8.52" r="8.52"/><path class="cls-2" d="M217.17,5.25s-5.83-1.33-7.66,2c-1.67,3,.09,11.12-2.65,11.67,0,0,7.41-.54,7.76-4.2C214.89,11.81,213.52,6.16,217.17,5.25Z"/><ellipse class="cls-2" cx="217.18" cy="5.71" rx="1.83" ry="1" transform="translate(137.55 207.85) rotate(-70)"/></g></g></svg>