<svg id="Layer_2" data-name="Layer 2" xmlns="http://www.w3.org/2000/svg" viewBox="0 0 166.46 303.33">
<title>Male Zumba</title>
	<defs>
		<style>.cls-1{fill:#fff;}</style>
	</defs>
	<defs>
		<mask id="progressBarFill">
			<path class="cls-1" d="M0,136.08a128.5,128.5,0,0,1,15.74-7.22A3.26,3.26,0,0,0,18,126.55a9.23,9.23,0,0,0,.3-5.26C16.17,114,16.47,106.6,17,99.16c.13-1.78.06-3.58.11-5.38A33.55,33.55,0,0,1,18.84,83a5.75,5.75,0,0,0,.22-1.17,20.87,20.87,0,0,1,3.08-8.75,13,13,0,0,0,1.95-5c.91-5.69,3.81-10.29,7.75-14.28,2.11-2.14,3.81-4.59,5.8-6.87-.28-.41-.54,0-.78,0a2.3,2.3,0,0,1-3-1.83,2.13,2.13,0,0,0-1.36-1.75A2.29,2.29,0,0,1,31,40.71c.7-3-.95-4.49-3.22-5.7a3.44,3.44,0,0,1-1.36-1.14,1.86,1.86,0,0,0-1.6-1c-1.1-.05-1.45-.77-1.46-1.76a9.56,9.56,0,0,1,.22-2.38,3.61,3.61,0,0,0,0-2.49c-1.13.54-2.24,1.09-3.36,1.61a11.9,11.9,0,0,1-1.3.48.68.68,0,0,1-.74-.14.66.66,0,0,1,0-.91c.68-.9,1.36-1.81,2.11-2.64a7,7,0,0,0,2-5.35c-.16-3.11-.56-6.21-.5-9.34a6.33,6.33,0,0,1,3.25-5.74A30.1,30.1,0,0,1,33.75.88,40.48,40.48,0,0,1,44.83,0a4.51,4.51,0,0,1,4.54,2.89c.93,2.19,2.19,4.25,3,6.5a1.77,1.77,0,0,0,2.3,1.3,26.94,26.94,0,0,1,2.94-.5c1.27-.13,2,.52,1.7,1.77-.42,2-.8,4.09-3,5.09-.34.16-.79.43-.89.75-.79,2.49-2.24,4.74-1.79,7.63a36.89,36.89,0,0,0,1.83,7.92,7.45,7.45,0,0,0,3.89,4.24c4.29,2.12,8.15,5.08,10.27,9.4,2.23,4.58,6.16,5.39,10.41,6,.85.13,1.72,0,2.59.1a13.91,13.91,0,0,1,7.79,3.17,53,53,0,0,0,9.84,6.38,81.64,81.64,0,0,0,10.9,3.78,4.32,4.32,0,0,0,4.32-.78,10.53,10.53,0,0,0,1.14-.8c2.06-2.32,4.93-2.75,7.72-3.28,1.81-.35,3.53.5,5.15,1.15,1.13.46.43,1.58.09,2.5,1.48-.3,2.83-.56,4.18-.86a9.55,9.55,0,0,1,2.77-.15,1.8,1.8,0,0,1,1.76,1.37,1.57,1.57,0,0,1-1.13,1.87c-1.1.47-2.25.82-3.37,1.22a15.56,15.56,0,0,0-2.4,1c2.68-.53,5.39-.19,8.07-.47a2.08,2.08,0,0,1,1.84.46c1.14,1.05.89,2.46-.59,2.91a13.21,13.21,0,0,1-2.74.48,17.07,17.07,0,0,0-3.3.63c1.65.09,2.92.11,4.18.24.81.09,1.57.35,1.6,1.42a1.67,1.67,0,0,1-1.4,1.88c-1.24.25-2.49.4-3.73.59-.43.07-.83,0-.94.71a2.53,2.53,0,0,1-2.54,2.5,11.8,11.8,0,0,1-1.79.08l-8.57-.09a14.09,14.09,0,0,1-7.07-1.77,15.34,15.34,0,0,0-6.84-1.83c-4.1-.32-8.1-1.43-12.15-2.1a55.73,55.73,0,0,1-12.71-3.93,33.31,33.31,0,0,0-6.06-1.73,9.45,9.45,0,0,0,2.9,1.7c3.17.91,5.37,3.08,7.35,5.55,1.2,1.51,2.47,3,3.59,4.52,2,2.81,4.92,4.35,7.91,5.83a45.29,45.29,0,0,1,4.54,2.48,3.29,3.29,0,0,0,3.92.1c2.44-1.68,4.69-.52,7,.3a5.75,5.75,0,0,1,2.45,1.66,4.42,4.42,0,0,0,3.13,1.43A7.82,7.82,0,0,1,123.18,95,1.67,1.67,0,0,1,124,97c-.34.87-1.13.76-1.88.63a13.28,13.28,0,0,0-2.95-.12c1.69.65,3.4,1.29,5.1,2a3,3,0,0,1,1.33.84,1.54,1.54,0,0,1,.21,1.85,1.35,1.35,0,0,1-1.52.68c-1.1-.15-2.14-.69-3.34-.55.23.62.78.57,1.18.75,1.41.63,1.88,1.33,1.55,2.35-.28.83-1,1-2.59.65a48.16,48.16,0,0,1-5.45-1.9,3,3,0,0,0-2.33-.43c1.16,1.07,2.18,2,3.15,2.92.66.66,1.83,1.27.9,2.44s-1.82.31-2.66-.16a17.37,17.37,0,0,1-2.5-1.64,11,11,0,0,0-4.43-2.16,13,13,0,0,1-6-3,5.14,5.14,0,0,0-1.75-.91c-2.71-1.06-5.5-1.87-7.89-3.7s-5.19-2.92-7.86-4.27c-3.62-1.83-6.77-4.41-10.08-6.75-1.9-1.34-3.86-2.58-4.88-4.83a2.47,2.47,0,0,0-1.5-1.25A12,12,0,0,1,63,77c-1-1.06-1.34-1-2.37.07A47.46,47.46,0,0,0,51.17,91a25.3,25.3,0,0,1-1.47,2.83c-1.76,2.89-2,6.14-2.23,9.38a3,3,0,0,0,.92,2.52,4.85,4.85,0,0,1,1.21,1.81,7.52,7.52,0,0,0,2,2.91,11.19,11.19,0,0,1,2.6,3.5,15.69,15.69,0,0,0,2.49,3.1,12.3,12.3,0,0,1,3.12,8.57c-.17,3.37.34,6.76-.27,10.13-.11.56.28,1,.5,1.47,1.4,3,3.54,5.61,5.24,8.46a12.2,12.2,0,0,1,1.07,1.9,17.61,17.61,0,0,0,4.7,6.34c.88.82,1.39.86,1.76-.28.69-2.13,2.65-3.2,3.73-5a1.49,1.49,0,0,1,.6-.51c3.76-2,7-4.8,10.77-6.74,3.06-1.55,5.64-3.95,8.62-5.71a20.73,20.73,0,0,0,4.89-3.7,4.77,4.77,0,0,0,1.15-1.81,10.8,10.8,0,0,1,3.54-5.19,5.81,5.81,0,0,0,1.65-2.17,17.24,17.24,0,0,1,3.07-4.15,39.24,39.24,0,0,0,2.94-3,3,3,0,0,1,3.92-.92c2,.81,4,1.66,6.09,2.43a42.76,42.76,0,0,0,6.45,2A14.92,14.92,0,0,1,134,121.1a43.94,43.94,0,0,1,10.14,7.3,13.07,13.07,0,0,1,1.89,2.31c1.18,1.81,1.07,2.89-.53,4.38a8.81,8.81,0,0,1-7.61,2.11,7,7,0,0,0-4.77.63,9.49,9.49,0,0,1-4,1c-2.89.14-4.85,1.87-6.46,3.84-2.29,2.8-5.38,4.25-8.39,5.91a1.66,1.66,0,0,1-2.14-.5,20,20,0,0,1-2.88-3.54c-.92-1.45-1.32-1.49-2.69-.44a23.16,23.16,0,0,0-3.83,3.77c-2.38,2.94-4.68,5.95-7,8.92a2.21,2.21,0,0,0-.6,2.2,1.68,1.68,0,0,1-.84,2.19,3.68,3.68,0,0,0-1.53,2,4,4,0,0,1-1.27,1.76,2.52,2.52,0,0,0-1,2.56A2.24,2.24,0,0,1,88.79,170a4,4,0,0,0-2.3,2.32,5.27,5.27,0,0,1-3,3c-3.29,1.13-6.18,3.08-9.33,4.47a14.6,14.6,0,0,1-13.22-.29,95.71,95.71,0,0,1-14.11-9.33c-.21-.17-.42-.33-.64-.48-1-.75-1.45-.65-1.72.63a23.33,23.33,0,0,0-.35,3.36c-.35,7.22-1.49,14.38-1.38,21.64a18,18,0,0,0,1.72,6.43,6.64,6.64,0,0,1,.61,1.46c.4,3.36,2.12,6.23,3.46,9.23a40,40,0,0,1,3.42,12.2,16,16,0,0,0,.74,3.29c.87,2.72,1.62,5.49,2.66,8.14,1.17,3,2.74,5.71,6,7A37.61,37.61,0,0,1,71.21,249a9,9,0,0,0,1.53.92c2.35,1.21,2.44,1.36,1.25,3.79s-2.45,5-3.84,7.43c-3.24,5.57-6.24,11.27-9.8,16.65-1.53,2.33-3.08,4.65-4.56,7a19,19,0,0,1-2.36,2.39H49.84c-3.09-2.44-3.78-4.12-2.3-6.91a10.48,10.48,0,0,0,1-6c-.26-3.14-.78-6.23-3-8.66-1.31-1.42-2.49-2.94-3.65-4.47a26.28,26.28,0,0,1-3.68-5.42c-.64-1.52-.62-1.85.63-2.93a8.25,8.25,0,0,1,4.19-2.16,5.13,5.13,0,0,0,2.52-1.11c.34-.27.58-.58.34-1-1.15-2.05-1.33-4.43-2.33-6.54A73.47,73.47,0,0,0,40,235.38c-2.69-4.49-5.77-8.75-8.19-13.43a56.17,56.17,0,0,0-6.61-9.66,8.49,8.49,0,0,0-2.95-2.63,3,3,0,0,1-1.57-2,18.1,18.1,0,0,1-.72-2.69,2.9,2.9,0,0,0-1.23-2.17,2.9,2.9,0,0,1-1.26-2.74c.08-6-.47-12.06-.64-18.09-.16-5.48-.67-10.95-.49-16.45.13-3.78,0-7.57,0-11.36a15,15,0,0,1,.55-4.32c1.2-4.22,2.25-8.47,1.84-12.92a4.9,4.9,0,0,1,.23-2,6,6,0,0,0-.18-3.72c-.31-1-.59-1.06-1.35-.4a15.19,15.19,0,0,0-2,2.94,85.27,85.27,0,0,0-7.86,12.45,20.48,20.48,0,0,0-2.2,10.6,28.39,28.39,0,0,0,1.61,6.55c.17.51.45,1.12-.14,1.43s-1.08-.22-1.47-.68a2.43,2.43,0,0,1-.3-.52,19.18,19.18,0,0,1-1-12.09c1.27-5.3,3.94-10,6.93-14.48,1.3-2,2.62-3.9,4-5.88a1.34,1.34,0,0,0-1.3.17c-3.47,1.49-6.94,3-10.31,4.75a4.5,4.5,0,0,1-3.21.77Z"/>
		</mask>
	</defs>
              
	<g x="0" y="0" width="79.36px" height="100%" mask="url(#progressBarFill)">
		<rect id="progressMove" x="0" y="0%" width="100%" height="100%" fill="#fff" stroke="#fc5336" />
	</g>
	
	<g x="0" y="0" width="79.36px" height="100%" mask="url(#progressBarFill)">
		<rect id="progressStatusFill" x="0" y="100%" width="110%" height="100%" fill="#fc5336" stroke="#fc5336" style="transition: 0.8s;" />
	</g>
</svg>