<svg id="Layer_2" data-name="Layer 2" xmlns="http://www.w3.org/2000/svg" viewBox="0 0 166.46 303.33">
<title>Male Yoga</title>
	<defs>
		<style>.cls-1{fill:#fff;}</style>
	</defs>
	<defs>
		<mask id="progressBarFill">
			<path class="cls-1" d="M75.16,0c3.13,5.75,3.7,12.23,4.44,18.47.84,7.06,4.73,11.66,9.75,15.8q6.91,5.71,14,11.27c5.32,4.17,8.86,9.73,9.15,16.25.59,13,1,25.86-3.32,38.68s-8.4,25.46-12.37,38.27c-1.82,5.89-.06,11.6,1,17.31a26.5,26.5,0,0,1,.07,10.68c-.69,3.06.76,5.75,1.33,8.57,1.68,8.29-.06,16.39-1.14,24.53-1.58,11.86-5.4,23.31-6.93,35.11-1,7.72-3.25,15.19-3.56,23.07-.39,9.85-6.21,18.28-8.76,27.62-.77,2.81-1.93,5.53-2,8.5a13.47,13.47,0,0,0,0,3.18c1,4.15-1.29,9,3.11,12.51,1.67,1.34-.24,2.58-1.63,3.07A52.36,52.36,0,0,1,68,315.06c-5.65.78-7,0-5.75-5.66,1.17-5.13,4.23-9.75,4.09-15.24,4.88-6.38,3.45-13.84,2.87-20.83a46.86,46.86,0,0,1,1.38-16.54,30.13,30.13,0,0,0,.19-16.86c-1.28-4.41-.22-8.69,1.91-12.64a3.89,3.89,0,0,0,.79-2.11c-.3-7.35-8.65-13.7-15.91-11.94-8.32,2-15.9,6-23.85,9a145.75,145.75,0,0,1-18.15,6c-4.34,1-8.47.29-12.63-.53-2.66-.52-2.87-2.93-3-5-.24-5.55,1.92-10.41,4.83-14.94C12.33,196.2,20.94,185.64,32.67,178A43.86,43.86,0,0,1,41,174c7.58-2.94,11.11-7.65,10.91-15.73-.16-7.08,1.2-14.06,1-21.12a14.29,14.29,0,0,0-.69-5.11C47,119.62,43.82,106.62,41.24,93.42c-.93-4.77-3.29-9.18-3.88-14.17-.46-3.93.44-7.65.5-11.47,0-1.45.62-2.94.42-4.33-1.36-9.79,4.63-16,10.82-21.93,4.22-4,9-7.41,13.66-11A14.52,14.52,0,0,0,68,21.78C69.55,14.52,71.16,7.26,72.76,0ZM25.54,209.6l6.14-2.8A28.68,28.68,0,0,1,44,203.87c9.56.06,18.89-1,26.78-7.26a13.72,13.72,0,0,1,3.24-1.5c2.72-1.17,4.35-.06,5.16,2.57a10.45,10.45,0,0,1,.46,5.08c-.72,4.07-1.25,8.3.5,12.2,2.16,4.82,0,9.39-.33,14.06-.1,1.21-1.39,1.87-2.3,2.65-.71.59-2.76.08-2.06,1.68s2,.1,3-.22A4.59,4.59,0,0,0,81.34,230c1.07-3.56,2.5-7.48,1.47-10.9A44.43,44.43,0,0,1,81.45,201a9.25,9.25,0,0,0-.22-2.77c-1.24-6.08-3.17-7-8.87-4.42-4.94,2.22-9.29,5.64-14.9,6.52-4.75.75-9.48,1.16-14.25,1.5-6.72.47-12.9,2.6-17.63,7.77a1.15,1.15,0,0,0-.33.09c-.05,0-.06.15-.08.23ZM74.18,27.09c-1,2.12-1.4,4.22-3.26,5.32-3.12,1.84-5,4.73-6.61,7.82a108.57,108.57,0,0,1-11.52,17.7,9.22,9.22,0,0,0-1.54,10,43.3,43.3,0,0,1,3.19,15.92c0,2.89,1.61,4.45,4,5.29a27.48,27.48,0,0,0,5.82,1.27c3.34.38,4.35-1.22,2.89-4.29s-3.24-6.32-4.49-9.61c-1.56-4.1,0-8.39-.16-12.61-.22-5.9,5.95-12.4,12.12-13.46,4.17-.72,13.74,4.92,14.56,9.43a68.68,68.68,0,0,1,.58,14.91c-.19,4.73-4,8.22-5.19,12.7-.43,1.62-1.68,3.5.61,4.42,4.13,1.66,11.32-3.36,11.6-7.87.3-4.77.07-9.66,1.07-14.29,1.2-5.53-.35-9.9-3.57-14.1A63.71,63.71,0,0,1,86.74,43.9C83.79,37.55,79.47,32.25,74.18,27.09Z"/>
			<path class="cls-1" d="M25.54,209.6l-.37.36c0-.08,0-.2.08-.23a1.15,1.15,0,0,1,.33-.09Z"/>
		</mask>
	</defs>
              
	<g x="0" y="0" width="79.36px" height="100%" mask="url(#progressBarFill)">
		<rect id="progressMove" x="0" y="0%" width="100%" height="100%" fill="#fff" stroke="#fc5336" />
	</g>
	
	<g x="0" y="0" width="79.36px" height="100%" mask="url(#progressBarFill)">
		<rect id="progressStatusFill" x="0" y="100%" width="110%" height="100%" fill="#fc5336" stroke="#fc5336" style="transition: 0.8s;" />
	</g>
</svg>