<?xml version="1.0" encoding="utf-8"?>
<!-- Svg Vector Icons : http://www.onlinewebfonts.com/icon -->
<!DOCTYPE svg PUBLIC "-//W3C//DTD SVG 1.1//EN" "http://www.w3.org/Graphics/SVG/1.1/DTD/svg11.dtd">
<svg version="1.1" xmlns="http://www.w3.org/2000/svg" xmlns:xlink="http://www.w3.org/1999/xlink" x="0px" y="0px" viewBox="0 0 1000 1000" enable-background="new 0 0 1000 1000" xml:space="preserve">
<metadata> Svg Vector Icons : http://www.onlinewebfonts.com/icon </metadata>
<g><g transform="translate(0.000000,511.000000) scale(0.100000,-0.100000)"><path d="M9068.5,4991c-56.2-20.1-146.5-96.3-296.9-244.8l-216.7-216.7l441.4-441.4l441.4-441.4l202.6,200.6c230.7,228.7,258.8,272.9,258.8,401.3c0,148.5-68.2,260.8-288.9,483.5C9351.4,4989,9231,5047.2,9068.5,4991z"/><path d="M7423.3,4848.6c-80.3-26.1-136.4-70.2-302.9-234.7c-112.3-112.4-220.7-240.8-240.8-284.9c-48.2-102.3-60.2-228.7-32.1-313c16-50.2,321-367.1,1089.4-1135.6C8940.1,1879.2,9012.3,1813,9090.6,1801c56.2-8,122.4-2,198.6,20.1c98.3,28.1,140.4,58.2,321,234.7c116.4,112.3,224.7,238.7,248.8,284.9c60.2,126.4,54.2,262.8-18.1,375.2c-74.2,112.4-2038.4,2070.5-2118.6,2110.6C7626,4874.7,7529.7,4882.7,7423.3,4848.6z"/><path d="M5716,4447.3c-94.3-48.1-668.1-630-712.2-722.3c-58.2-118.4-54.2-292.9,10-421.3c38.1-76.2,415.3-465.5,1649.2-1695.3C7543.7,729.6,8294.1-6.7,8332.2-24.7c92.3-46.2,278.9-62.2,375.2-30.1c58.2,18.1,164.5,110.3,417.3,359.1c184.6,182.6,349.1,361.1,365.1,397.3c44.1,102.3,34.1,208.7-32.1,339.1c-50.2,102.3-290.9,349.1-1679.3,1735.4C6548.6,4003.9,6135.3,4403.2,6065,4437.3C5956.7,4487.4,5802.2,4493.5,5716,4447.3z"/><path d="M4566.4,541L3238.2-787.1l441.4-441.4l441.4-441.4L5451.1-339.7L6779.3,988.5l-441.4,441.4l-441.4,441.4L4566.4,541z"/><path d="M1392.4,113.7c-86.3-36.1-690.2-632-732.3-722.3c-42.1-92.3-38.1-238.8,12-347.1c34.1-70.2,433.4-483.5,1661.2-1713.4c1386.4-1388.4,1633.1-1629.1,1735.4-1679.3c130.4-66.2,236.7-76.2,339.1-32.1c36.1,16,214.7,180.6,397.3,365.1c248.8,252.8,341.1,359.1,359.1,417.3c32.1,96.3,16,282.9-30.1,375.2c-18.1,38.1-754.4,788.5-1633.1,1669.2C2271.1-319.7,1881.9,57.5,1805.7,95.6C1687.3,153.8,1504.7,161.9,1392.4,113.7z"/><path d="M840.7-1744.1c-104.3-38.1-218.7-128.4-387.2-307c-224.7-234.7-262.8-369.1-170.5-561.8c40.1-80.3,1996.3-2044.4,2110.6-2118.6c112.4-72.2,248.8-78.3,375.2-18.1c46.1,24.1,172.5,132.4,284.9,248.8c176.6,180.6,206.7,222.7,234.7,321c22.1,76.2,28.1,142.4,20.1,198.6c-12,78.3-80.2,150.5-1069.4,1145.6c-605.9,605.9-1085.4,1071.3-1121.5,1087.4C1041.3-1716,926.9-1714.1,840.7-1744.1z"/><path d="M355.1-3670.2c-244.8-248.8-276.9-311-244.8-459.4c26.1-114.4,104.3-220.7,300.9-409.3c188.6-180.6,315-250.8,449.4-250.8c128.4,0,172.5,28.1,401.3,258.8l200.6,202.6l-441.4,441.4l-443.4,443.4L355.1-3670.2z"/></g></g>
</svg>